<svg width="103" height="16" viewBox="0 0 103 16" fill="none" xmlns="http://www.w3.org/2000/svg">
<path d="M13.2522 15.3987V1.07194H3.39325L2.96632 9.50119C2.86704 11.3578 2.52947 12.7478 1.06999 12.7478C0.811851 12.7478 0.543783 12.6982 0.404785 12.6684V15.3987C0.593426 15.4583 1.00049 15.5278 1.48699 15.5278C4.45559 15.5278 5.53779 13.2442 5.72643 9.70969L6.07393 3.63348H10.2538V15.3987H13.2522Z" fill="white"/>
<path d="M23.2005 0.70459C18.9908 0.70459 16.3002 3.58384 16.3002 8.23035C16.3002 12.8769 18.9511 15.766 23.2005 15.766C27.4399 15.766 30.0809 12.8769 30.0809 8.23035C30.0809 3.59377 27.43 0.70459 23.2005 0.70459ZM23.2005 3.33563C25.5337 3.33563 27.023 5.23196 27.023 8.23035C27.023 11.2188 25.5337 13.135 23.2005 13.135C20.8475 13.135 19.3681 11.2188 19.3681 8.23035C19.3681 5.23196 20.8772 3.33563 23.2005 3.33563Z" fill="white"/>
<path d="M36.1273 15.3987V3.64341H42.3525V1.07194H33.119V15.3987H36.1273Z" fill="white"/>
<path d="M50.9604 0.70459C46.7508 0.70459 44.0602 3.58384 44.0602 8.23035C44.0602 12.8769 46.7111 15.766 50.9604 15.766C55.1999 15.766 57.8408 12.8769 57.8408 8.23035C57.8408 3.59377 55.19 0.70459 50.9604 0.70459ZM50.9604 3.33563C53.2936 3.33563 54.7829 5.23196 54.7829 8.23035C54.7829 11.2188 53.2936 13.135 50.9604 13.135C48.6074 13.135 47.1281 11.2188 47.1281 8.23035C47.1281 5.23196 48.6372 3.33563 50.9604 3.33563Z" fill="white"/>
<path d="M66.7963 15.3987V3.63348H71.0953V1.07194H59.4989V3.63348H63.7979V15.3987H66.7963Z" fill="white"/>
<path d="M83.4562 15.3987H86.4447V1.07194H83.5555L77.1119 10.5735H76.9332V1.07194H73.9448V15.3987H76.834L83.2775 5.9071H83.4562V15.3987Z" fill="white"/>
<path d="M102.429 15.3987V1.07194H90.1282V15.3987H93.1365V3.64341H99.441V15.3987H102.429Z" fill="white"/>
</svg>
