<svg width="21" height="21" viewBox="0 0 21 21" fill="none" xmlns="http://www.w3.org/2000/svg">
<g clip-path="url(#clip0_1_1223)">
<g clip-path="url(#clip1_1_1223)">
<path d="M10.5 20.6592C16.0228 20.6592 20.5 16.182 20.5 10.6592C20.5 5.13633 16.0228 0.65918 10.5 0.65918C4.97715 0.65918 0.5 5.13633 0.5 10.6592C0.5 16.182 4.97715 20.6592 10.5 20.6592Z" fill="#F2994A"/>
<path d="M13.4832 11.0552C13.3332 10.7502 12.9122 10.4952 12.3522 10.9272C11.5892 11.5352 10.3732 11.5352 10.3732 11.5352C10.3732 11.5352 9.15722 11.5352 8.39422 10.9272C7.83422 10.4952 7.41322 10.7502 7.26422 11.0552C6.99722 11.5882 7.29522 11.8492 7.97322 12.2812C8.55422 12.6552 9.34922 12.7932 9.86122 12.8472L9.43422 13.2732C8.82622 13.8762 8.23922 14.4582 7.83922 14.8632C7.78213 14.9197 7.73682 14.987 7.7059 15.0612C7.67497 15.1353 7.65905 15.2149 7.65905 15.2952C7.65905 15.3755 7.67497 15.4551 7.7059 15.5292C7.73682 15.6034 7.78213 15.6707 7.83922 15.7272L7.91422 15.8122C8.15422 16.0522 8.54922 16.0522 8.78922 15.8122L10.3732 14.2232C10.9872 14.8262 11.5682 15.4072 11.9732 15.8132C12.2132 16.0532 12.6032 16.0532 12.8482 15.8132L12.9182 15.7272C12.9763 15.6712 13.0225 15.6041 13.054 15.5299C13.0856 15.4557 13.1018 15.3758 13.1018 15.2952C13.1018 15.2145 13.0856 15.1347 13.054 15.0605C13.0225 14.9863 12.9763 14.9192 12.9182 14.8632L11.3282 13.2732L10.9072 12.8412C11.4132 12.7932 12.1972 12.6502 12.7732 12.2812C13.4512 11.8492 13.7492 11.5882 13.4832 11.0552ZM10.3732 6.6972C11.1092 6.6972 11.7072 7.2942 11.7072 8.0252C11.707 8.20002 11.6722 8.37308 11.605 8.53448C11.5378 8.69587 11.4394 8.84243 11.3155 8.96577C11.1916 9.08911 11.0446 9.18682 10.883 9.2533C10.7213 9.31977 10.548 9.35372 10.3732 9.3532C10.1985 9.35359 10.0254 9.31955 9.86379 9.25301C9.70221 9.18647 9.55533 9.08875 9.43153 8.96542C9.30774 8.84209 9.20946 8.69557 9.14232 8.53424C9.07517 8.37292 9.04048 8.19994 9.04022 8.0252C9.04022 7.2952 9.63722 6.6972 10.3732 6.6972ZM10.3732 10.7242C11.0892 10.7242 11.7758 10.4398 12.2821 9.93353C12.7883 9.42728 13.0727 8.74065 13.0727 8.0247C13.0727 7.30874 12.7883 6.62211 12.2821 6.11586C11.7758 5.60961 11.0892 5.3252 10.3732 5.3252C9.65727 5.3252 8.97064 5.60961 8.46438 6.11586C7.95813 6.62211 7.67372 7.30874 7.67372 8.0247C7.67372 8.74065 7.95813 9.42728 8.46438 9.93353C8.97064 10.4398 9.65727 10.7242 10.3732 10.7242Z" fill="white"/>
</g>
</g>
<defs>
<clipPath id="clip0_1_1223">
<rect width="20" height="20" fill="white" transform="translate(0.5 0.65918)"/>
</clipPath>
<clipPath id="clip1_1_1223">
<rect width="20" height="20" fill="white" transform="translate(0.5 0.65918)"/>
</clipPath>
</defs>
</svg>
