<svg width="26" height="25" viewBox="0 0 26 25" fill="none" xmlns="http://www.w3.org/2000/svg">
<g clip-path="url(#clip0_1_2057)">
<g clip-path="url(#clip1_1_2057)">
<path d="M2.30648 0.131836C1.94211 0.131836 1.59266 0.276582 1.33501 0.534231C1.07736 0.79188 0.932617 1.14133 0.932617 1.5057C0.932617 7.69812 3.39255 13.6369 7.77126 18.0156C12.15 22.3943 18.0888 24.8543 24.2812 24.8543C24.6456 24.8543 24.995 24.7095 25.2527 24.4519C25.5103 24.1942 25.6551 23.8448 25.6551 23.4804V18.6737C25.6551 18.3093 25.5103 17.9598 25.2527 17.7022C24.995 17.4445 24.6456 17.2998 24.2812 17.2998C22.6159 17.3023 20.9609 17.0382 19.3791 16.5175C19.1374 16.4406 18.8793 16.4307 18.6324 16.4888C18.3855 16.547 18.159 16.671 17.977 16.8477L14.9573 19.8674C11.0582 17.8848 7.88875 14.716 5.90536 10.8172L8.92503 7.78166C9.10712 7.60911 9.23624 7.38821 9.29723 7.14487C9.35822 6.90153 9.34856 6.64584 9.26938 6.4078C8.74869 4.82598 8.48458 3.17101 8.48709 1.5057C8.48709 1.14133 8.34234 0.79188 8.08469 0.534231C7.82704 0.276582 7.4776 0.131836 7.11323 0.131836L2.30648 0.131836ZM22.9073 11.1192V9.06017H18.1006L25.6551 1.5057L24.2812 0.131836L16.7267 7.68631V2.87956H14.6677V11.1192H22.9073Z" fill="white"/>
</g>
</g>
<defs>
<clipPath id="clip0_1_2057">
<rect width="24.7224" height="24.7224" fill="white" transform="translate(0.932617 0.132812)"/>
</clipPath>
<clipPath id="clip1_1_2057">
<rect width="24.7224" height="24.7224" fill="white" transform="translate(0.932617 0.131836)"/>
</clipPath>
</defs>
</svg>
