<svg width="17" height="17" viewBox="0 0 17 17" fill="none" xmlns="http://www.w3.org/2000/svg">
<g clip-path="url(#clip0_1_312)">
<path d="M7.43578 0.898926C9.20884 0.899191 10.9092 1.60372 12.1628 2.85756C13.4165 4.1114 14.1208 5.81186 14.1208 7.58493C14.1206 9.17957 13.5519 10.7219 12.5168 11.9349L12.7948 12.2129H13.6068L18.7498 17.3559L17.2068 18.8989L12.0638 13.7559V12.9439L11.7868 12.6659C10.5735 13.7013 9.03077 14.27 7.43578 14.2699C5.67683 14.2484 3.99723 13.5346 2.76101 12.2831C1.52478 11.0317 0.831543 9.3435 0.831543 7.58443C0.831543 5.82535 1.52478 4.13714 2.76101 2.88571C3.99723 1.63427 5.67683 0.920438 7.43578 0.898926ZM7.43578 2.95593C6.82718 2.95341 6.22412 3.07143 5.66137 3.30317C5.09861 3.53491 4.58732 3.87578 4.15698 4.30612C3.72663 4.73647 3.38576 5.24776 3.15402 5.81051C2.92228 6.37327 2.80426 6.97633 2.80678 7.58493C2.8044 8.19343 2.92251 8.79639 3.15431 9.35903C3.38611 9.92167 3.727 10.4328 4.15733 10.8631C4.58766 11.2933 5.09891 11.6341 5.6616 11.8658C6.22428 12.0975 6.82727 12.2154 7.43578 12.2129C8.0442 12.2153 8.64708 12.0972 9.20965 11.8655C9.77222 11.6338 10.2833 11.2929 10.7136 10.8627C11.1438 10.4325 11.4846 9.92137 11.7163 9.3588C11.9481 8.79623 12.0662 8.19335 12.0638 7.58493C12.0663 6.97642 11.9483 6.37343 11.7166 5.81075C11.485 5.24806 11.1442 4.73681 10.7139 4.30648C10.2837 3.87615 9.77252 3.53526 9.20988 3.30346C8.64725 3.07166 8.04428 2.95354 7.43578 2.95593Z" fill="#E0E0E0"/>
</g>
<defs>
<clipPath id="clip0_1_312">
<rect width="18" height="18" fill="white" transform="translate(0.75 0.898926)"/>
</clipPath>
</defs>
</svg>
