<svg width="17" height="17" viewBox="0 0 17 17" fill="none" xmlns="http://www.w3.org/2000/svg">
<g clip-path="url(#clip0_1_335)">
<g clip-path="url(#clip1_1_335)">
<path d="M12.8064 12.9632C11.9996 12.9632 11.3527 13.6101 11.3527 14.4169C11.3527 14.7044 11.438 14.9855 11.5977 15.2245C11.7575 15.4636 11.9845 15.6499 12.2501 15.7599C12.5158 15.87 12.8081 15.8988 13.09 15.8427C13.372 15.7866 13.6311 15.6481 13.8344 15.4448C14.0377 15.2415 14.1761 14.9825 14.2322 14.7005C14.2883 14.4185 14.2595 14.1262 14.1495 13.8606C14.0395 13.595 13.8531 13.3679 13.6141 13.2082C13.375 13.0484 13.094 12.9632 12.8064 12.9632ZM1.17676 1.3335V2.78721H2.63047L5.24715 8.30404L4.25862 10.0848C4.1496 10.2884 4.08418 10.5282 4.08418 10.7826C4.08418 11.1682 4.23734 11.5379 4.50996 11.8105C4.78259 12.0832 5.15234 12.2363 5.53789 12.2363H14.2602V10.7826H5.84317C5.79498 10.7826 5.74876 10.7635 5.71468 10.7294C5.6806 10.6953 5.66146 10.6491 5.66146 10.6009C5.66146 10.5646 5.66872 10.5355 5.68326 10.5137L6.33743 9.32891H11.7525C12.2976 9.32891 12.7774 9.02363 13.0245 8.58025L15.6266 3.87749C15.6775 3.76119 15.7139 3.63763 15.7139 3.51406C15.7139 3.32129 15.6373 3.13641 15.501 3.0001C15.3647 2.86379 15.1798 2.78721 14.987 2.78721H4.23682L3.55358 1.3335L1.17676 1.3335ZM5.53789 12.9632C4.73108 12.9632 4.08418 13.6101 4.08418 14.4169C4.08418 14.7044 4.16944 14.9855 4.32917 15.2245C4.48891 15.4636 4.71595 15.6499 4.98158 15.7599C5.24721 15.87 5.5395 15.8988 5.8215 15.8427C6.10349 15.7866 6.36251 15.6481 6.56582 15.4448C6.76912 15.2415 6.90758 14.9825 6.96367 14.7005C7.01976 14.4185 6.99097 14.1262 6.88094 13.8606C6.77092 13.595 6.58459 13.3679 6.34553 13.2082C6.10647 13.0484 5.82541 12.9632 5.53789 12.9632Z" fill="white"/>
</g>
</g>
<defs>
<clipPath id="clip0_1_335">
<rect width="16" height="16" fill="white" transform="translate(0.445312 0.602051)"/>
</clipPath>
<clipPath id="clip1_1_335">
<rect width="14.5371" height="14.5371" fill="white" transform="translate(1.17676 1.3335)"/>
</clipPath>
</defs>
</svg>
