<svg width="100" height="18" viewBox="0 0 100 18" fill="none" xmlns="http://www.w3.org/2000/svg">
  <path d="M9.98311 14.7698C10.1391 14.6756 10.3179 14.6258 10.5001 14.6258C10.6823 14.6258 10.8611 14.6756 11.0171 14.7698L14.6511 16.9628C15.4081 17.4208 16.3421 16.7418 16.1411 15.8798L15.1771 11.7458C15.1358 11.5683 15.1438 11.383 15.2002 11.2097C15.2566 11.0365 15.3593 10.882 15.4971 10.7628L18.7121 7.9768C19.3801 7.3978 19.0241 6.3008 18.1431 6.2248L13.9091 5.8598C13.7282 5.84405 13.5549 5.77932 13.408 5.67255C13.2611 5.56579 13.146 5.42102 13.0751 5.2538L11.4201 1.3578C11.0751 0.544797 9.92311 0.544797 9.57811 1.3578L7.92511 5.2538C7.85423 5.42102 7.73915 5.56579 7.59222 5.67255C7.44528 5.77932 7.27205 5.84405 7.09111 5.8598L2.85411 6.2248C1.97411 6.3008 1.61711 7.3968 2.28411 7.9768L5.49511 10.7628C5.63258 10.882 5.73494 11.0364 5.79115 11.2094C5.84736 11.3825 5.8553 11.5676 5.81411 11.7448L4.85411 15.8838C4.65411 16.7438 5.58811 17.4218 6.34511 16.9658L9.98311 14.7698V14.7698Z" fill="#E86D00"/>
  <path d="M29.9831 14.7698C30.1391 14.6756 30.3179 14.6258 30.5001 14.6258C30.6823 14.6258 30.8611 14.6756 31.0171 14.7698L34.6511 16.9628C35.4081 17.4208 36.3421 16.7418 36.1411 15.8798L35.1771 11.7458C35.1358 11.5683 35.1438 11.383 35.2002 11.2097C35.2566 11.0365 35.3593 10.882 35.4971 10.7628L38.7121 7.9768C39.3801 7.3978 39.0241 6.3008 38.1431 6.2248L33.9091 5.8598C33.7282 5.84405 33.5549 5.77932 33.408 5.67255C33.2611 5.56579 33.146 5.42102 33.0751 5.2538L31.4201 1.3578C31.0751 0.544797 29.9231 0.544797 29.5781 1.3578L27.9251 5.2538C27.8542 5.42102 27.7391 5.56579 27.5922 5.67255C27.4453 5.77932 27.272 5.84405 27.0911 5.8598L22.8541 6.2248C21.9741 6.3008 21.6171 7.3968 22.2841 7.9768L25.4951 10.7628C25.6326 10.882 25.7349 11.0364 25.7911 11.2094C25.8474 11.3825 25.8553 11.5676 25.8141 11.7448L24.8541 15.8838C24.6541 16.7438 25.5881 17.4218 26.3451 16.9658L29.9831 14.7698V14.7698Z" fill="#E86D00"/>
  <path d="M49.9831 14.7698C50.1391 14.6756 50.3179 14.6258 50.5001 14.6258C50.6823 14.6258 50.8611 14.6756 51.0171 14.7698L54.6511 16.9628C55.4081 17.4208 56.3421 16.7418 56.1411 15.8798L55.1771 11.7458C55.1358 11.5683 55.1438 11.383 55.2002 11.2097C55.2566 11.0365 55.3593 10.882 55.4971 10.7628L58.7121 7.9768C59.3801 7.3978 59.0241 6.3008 58.1431 6.2248L53.9091 5.8598C53.7282 5.84405 53.5549 5.77932 53.408 5.67255C53.2611 5.56579 53.146 5.42102 53.0751 5.2538L51.4201 1.3578C51.0751 0.544797 49.9231 0.544797 49.5781 1.3578L47.9251 5.2538C47.8542 5.42102 47.7391 5.56579 47.5922 5.67255C47.4453 5.77932 47.272 5.84405 47.0911 5.8598L42.8541 6.2248C41.9741 6.3008 41.6171 7.3968 42.2841 7.9768L45.4951 10.7628C45.6326 10.882 45.7349 11.0364 45.7911 11.2094C45.8474 11.3825 45.8553 11.5676 45.8141 11.7448L44.8541 15.8838C44.6541 16.7438 45.5881 17.4218 46.3451 16.9658L49.9831 14.7698V14.7698Z" fill="#E86D00"/>
  <path d="M69.9831 14.7698C70.1391 14.6756 70.3179 14.6258 70.5001 14.6258C70.6823 14.6258 70.8611 14.6756 71.0171 14.7698L74.6511 16.9628C75.4081 17.4208 76.3421 16.7418 76.1411 15.8798L75.1771 11.7458C75.1358 11.5683 75.1438 11.383 75.2002 11.2097C75.2566 11.0365 75.3593 10.882 75.4971 10.7628L78.7121 7.9768C79.3801 7.3978 79.0241 6.3008 78.1431 6.2248L73.9091 5.8598C73.7282 5.84405 73.5549 5.77932 73.408 5.67255C73.2611 5.56579 73.146 5.42102 73.0751 5.2538L71.4201 1.3578C71.0751 0.544797 69.9231 0.544797 69.5781 1.3578L67.9251 5.2538C67.8542 5.42102 67.7391 5.56579 67.5922 5.67255C67.4453 5.77932 67.272 5.84405 67.0911 5.8598L62.8541 6.2248C61.9741 6.3008 61.6171 7.3968 62.2841 7.9768L65.4951 10.7628C65.6326 10.882 65.7349 11.0364 65.7911 11.2094C65.8474 11.3825 65.8553 11.5676 65.8141 11.7448L64.8541 15.8838C64.6541 16.7438 65.5881 17.4218 66.3451 16.9658L69.9831 14.7698V14.7698Z" fill="#E86D00"/>
  <path d="M89.9831 14.7698C90.1391 14.6756 90.3179 14.6258 90.5001 14.6258C90.6823 14.6258 90.8611 14.6756 91.0171 14.7698L94.6511 16.9628C95.4081 17.4208 96.3421 16.7418 96.1411 15.8798L95.1771 11.7458C95.1358 11.5683 95.1438 11.383 95.2002 11.2097C95.2566 11.0365 95.3593 10.882 95.4971 10.7628L98.7121 7.9768C99.3801 7.3978 99.0241 6.3008 98.1431 6.2248L93.9091 5.8598C93.7282 5.84405 93.5549 5.77932 93.408 5.67255C93.2611 5.56579 93.146 5.42102 93.0751 5.2538L91.4201 1.3578C91.0751 0.544797 89.9231 0.544797 89.5781 1.3578L87.9251 5.2538C87.8542 5.42102 87.7391 5.56579 87.5922 5.67255C87.4453 5.77932 87.272 5.84405 87.0911 5.8598L82.8541 6.2248C81.9741 6.3008 81.6171 7.3968 82.2841 7.9768L85.4951 10.7628C85.6326 10.882 85.7349 11.0364 85.7911 11.2094C85.8474 11.3825 85.8553 11.5676 85.8141 11.7448L84.8541 15.8838C84.6541 16.7438 85.5881 17.4218 86.3451 16.9658L89.9831 14.7698V14.7698Z" fill="#E86D00"/>
</svg>
