<svg width="21" height="21" viewBox="0 0 21 21" fill="none" xmlns="http://www.w3.org/2000/svg">
<g clip-path="url(#clip0_1_1229)">
<g clip-path="url(#clip1_1_1229)">
<path d="M20.5 10.6592C20.5 5.13918 16.02 0.65918 10.5 0.65918C4.98 0.65918 0.5 5.13918 0.5 10.6592C0.5 16.1792 4.98 20.6592 10.5 20.6592C16.02 20.6592 20.5 16.1792 20.5 10.6592Z" fill="#039BE5"/>
<path d="M14.7201 6.72924C15.1701 6.55924 15.5601 6.83924 15.4101 7.50924C14.4301 12.1492 13.8801 14.7292 13.7701 15.2492C13.6501 15.7892 13.3201 15.9292 12.8701 15.6692C12.7001 15.5492 11.8701 14.9292 10.3701 13.8292C9.64012 14.5192 9.24012 14.9092 9.16012 14.9892C9.03012 15.1192 8.91012 15.2292 8.66012 15.2292C8.67012 15.0592 8.73012 14.2192 8.83012 12.6892L13.4701 8.49924C13.6701 8.32924 13.4201 8.22924 13.1601 8.39924C12.7701 8.63924 10.8701 9.83924 7.43012 12.0092C5.95012 11.5492 5.13012 11.2892 4.96012 11.2392C4.43012 11.0692 4.41012 10.6992 5.08012 10.4392C7.00012 9.69924 13.7501 7.09924 14.7201 6.72924Z" fill="white"/>
</g>
</g>
<defs>
<clipPath id="clip0_1_1229">
<rect width="20" height="20" fill="white" transform="translate(0.5 0.65918)"/>
</clipPath>
<clipPath id="clip1_1_1229">
<rect width="20" height="20" fill="white" transform="translate(0.5 0.65918)"/>
</clipPath>
</defs>
</svg>
