<svg width="33" height="32" viewBox="0 0 33 32" fill="none" xmlns="http://www.w3.org/2000/svg">
<g clip-path="url(#clip0_1_2071)">
<g clip-path="url(#clip1_1_2071)">
<path d="M26.7691 0.0703125H5.57843C2.65261 0.0703125 0.280762 2.44216 0.280762 5.36798V26.5586C0.280762 29.4845 2.65261 31.8563 5.57843 31.8563H26.7691C29.6949 31.8563 32.0668 29.4845 32.0668 26.5586V5.36798C32.0668 2.44216 29.6949 0.0703125 26.7691 0.0703125Z" fill="#7B519D"/>
<path fill-rule="evenodd" clip-rule="evenodd" d="M23.59 19.7255C23.0602 19.284 22.4775 18.8955 21.9124 18.4893C20.7822 17.6947 19.7404 17.6241 18.8927 18.9132C18.4159 19.6195 17.7449 19.6725 17.0562 19.3546C15.1554 18.5566 13.6282 17.0673 12.7828 15.1871C12.3943 14.3218 12.4119 13.5449 13.3125 12.9445C13.7717 12.6266 14.2661 12.2381 14.2131 11.5317C14.1778 10.6135 11.9351 7.54083 11.0522 7.22297C10.6988 7.0933 10.3108 7.0933 9.95734 7.22297C7.89125 7.91167 7.02596 9.60692 7.83827 11.6377C8.98736 14.5039 10.7046 17.108 12.8867 19.2931C15.0687 21.4781 17.6704 23.199 20.535 24.3521C20.8705 24.511 21.2414 24.564 21.418 24.617C22.7777 24.617 24.367 23.3279 24.8261 22.0388C25.2499 20.8027 24.3317 20.3082 23.59 19.7255ZM16.9503 7.84103C21.2767 8.49441 23.2721 10.5605 23.8372 14.9222C23.8902 15.3284 23.7313 15.9288 24.314 15.9465C24.9144 15.9465 24.7731 15.3637 24.7731 14.9576C24.8261 10.843 21.2414 7.02872 17.0739 6.88745C16.756 6.94043 16.1203 6.67555 16.0673 7.3819C16.0497 7.85869 16.5971 7.7704 16.9503 7.84103Z" fill="white"/>
<path fill-rule="evenodd" clip-rule="evenodd" d="M17.7976 9.02393C17.3738 8.98861 16.8264 8.77671 16.7381 9.37711C16.6322 9.97751 17.2502 9.90687 17.6387 9.99517C20.3229 10.5956 21.2411 11.5668 21.7003 14.2333C21.7532 14.6041 21.6296 15.2045 22.283 15.1162C22.7774 15.028 22.6009 14.5158 22.6362 14.2333C22.6538 11.6728 20.4641 9.34179 17.7976 9.02393Z" fill="white"/>
<path fill-rule="evenodd" clip-rule="evenodd" d="M18.0457 11.1076C17.7632 11.1076 17.4983 11.1429 17.3923 11.4608C17.2334 11.8846 17.5689 11.9905 17.8868 12.0435C18.9816 12.2201 19.5644 12.8735 19.6703 13.986C19.7056 14.2685 19.8999 14.5158 20.1824 14.4804C20.5709 14.4275 20.6062 14.0743 20.6062 13.7388C20.6062 12.5026 19.2288 11.0899 18.0457 11.1076Z" fill="white"/>
</g>
</g>
<defs>
<clipPath id="clip0_1_2071">
<rect width="31.786" height="31.786" fill="white" transform="translate(0.28125 0.0693359)"/>
</clipPath>
<clipPath id="clip1_1_2071">
<rect width="31.786" height="31.786" fill="white" transform="translate(0.280762 0.0703125)"/>
</clipPath>
</defs>
</svg>
