<svg width="21" height="21" viewBox="0 0 21 21" fill="none" xmlns="http://www.w3.org/2000/svg">
<g clip-path="url(#clip0_1_1217)">
<g clip-path="url(#clip1_1_1217)">
<path d="M10.5 20.6592C13.1522 20.6592 15.6957 19.6056 17.5711 17.7302C19.4464 15.8549 20.5 13.3113 20.5 10.6592C20.5 8.00701 19.4464 5.46348 17.5711 3.58811C15.6957 1.71275 13.1522 0.65918 10.5 0.65918C7.84784 0.65918 5.3043 1.71275 3.42893 3.58811C1.55357 5.46348 0.5 8.00701 0.5 10.6592C0.5 13.3113 1.55357 15.8549 3.42893 17.7302C5.3043 19.6056 7.84784 20.6592 10.5 20.6592Z" fill="#4D76A1"/>
<path fill-rule="evenodd" clip-rule="evenodd" d="M10.1198 15.0495H10.9098C10.9098 15.0495 11.1398 15.0195 11.2598 14.8895C11.3798 14.7695 11.3698 14.5395 11.3698 14.5395C11.3698 14.5395 11.3598 13.4895 11.8498 13.3395C12.3298 13.1795 12.9498 14.3495 13.5998 14.7995C14.0998 15.1395 14.4798 15.0695 14.4798 15.0695L16.2298 15.0495C16.2298 15.0495 17.1498 14.9895 16.7098 14.2695C16.6798 14.2095 16.4598 13.7295 15.4098 12.7595C14.3098 11.7395 14.4598 11.8995 15.7798 10.1395C16.5798 9.05952 16.9098 8.40952 16.8098 8.12952C16.7098 7.85952 16.1098 7.92952 16.1098 7.92952L14.1498 7.93952C14.1498 7.93952 13.9998 7.91952 13.8898 7.98952C13.8178 8.04149 13.7595 8.11011 13.7198 8.18952C13.7198 8.18952 13.3998 9.02952 12.9898 9.73952C12.1098 11.2395 11.7598 11.3095 11.6098 11.2195C11.2798 10.9995 11.3598 10.3495 11.3598 9.88952C11.3598 8.43952 11.5798 7.83952 10.9298 7.67952C10.6291 7.60428 10.3196 7.57064 10.0098 7.57952C9.30976 7.57952 8.70976 7.58952 8.36976 7.75952C8.14976 7.85952 7.96976 8.10952 8.07976 8.12952C8.20976 8.13952 8.50976 8.20952 8.65976 8.41952C8.85976 8.68952 8.85976 9.31952 8.85976 9.31952C8.85976 9.31952 8.97976 11.0195 8.58976 11.2195C8.31976 11.3695 7.95976 11.0695 7.16976 9.71952C6.90534 9.24837 6.67152 8.7607 6.46976 8.25952C6.46976 8.25952 6.40976 8.11952 6.30976 8.03952C6.21871 7.98002 6.11673 7.93922 6.00976 7.91952L4.12976 7.92952C4.12976 7.92952 3.83976 7.92952 3.73976 8.05952C3.63976 8.15952 3.73976 8.38952 3.73976 8.38952C3.73976 8.38952 5.19976 11.8295 6.86976 13.5595C8.38976 15.1495 10.1198 15.0495 10.1198 15.0495Z" fill="white"/>
</g>
</g>
<defs>
<clipPath id="clip0_1_1217">
<rect width="20" height="20" fill="white" transform="translate(0.5 0.65918)"/>
</clipPath>
<clipPath id="clip1_1_1217">
<rect width="20" height="20" fill="white" transform="translate(0.5 0.65918)"/>
</clipPath>
</defs>
</svg>
