<svg width="33" height="32" viewBox="0 0 33 32" fill="none" xmlns="http://www.w3.org/2000/svg">
<g clip-path="url(#clip0_1_2065)">
<g clip-path="url(#clip1_1_2065)">
<path d="M26.856 0.0703125H5.66534C2.73952 0.0703125 0.367676 2.44216 0.367676 5.36798V26.5586C0.367676 29.4845 2.73952 31.8563 5.66534 31.8563H26.856C29.7818 31.8563 32.1537 29.4845 32.1537 26.5586V5.36798C32.1537 2.44216 29.7818 0.0703125 26.856 0.0703125Z" fill="#2DBB28"/>
<path d="M23.2712 8.98836C22.3929 8.10256 21.3475 7.39984 20.1956 6.92091C19.0438 6.44197 17.8083 6.19635 16.5609 6.19825C14.0412 6.19825 11.6247 7.19919 9.84301 8.98088C8.06132 10.7626 7.06038 13.179 7.06038 15.6987C7.06038 17.3763 7.50185 19.0009 8.33182 20.449L6.98975 25.3581L12.0225 24.0514C13.3999 24.7931 14.9716 25.1992 16.5609 25.1992C19.0791 25.1945 21.4929 24.1921 23.2736 22.4114C25.0542 20.6308 26.0567 18.217 26.0613 15.6987C26.0632 14.4513 25.8176 13.2158 25.3387 12.064C24.8598 10.9121 24.157 9.86672 23.2712 8.98836ZM16.5609 23.5923C15.1448 23.5959 13.7539 23.2177 12.5346 22.4974L12.2521 22.3208L9.25008 23.1155L10.0624 20.2017L9.8858 19.9015C9.08459 18.6457 8.65596 17.1884 8.64968 15.6987C8.65436 13.6036 9.48992 11.5959 10.973 10.1161C12.4562 8.63628 14.4657 7.80521 16.5609 7.80521C18.6799 7.80521 20.6577 8.63518 22.1411 10.1185C22.8765 10.8495 23.4596 11.7191 23.8567 12.6769C24.2538 13.6347 24.4569 14.6618 24.4544 15.6987C24.4497 17.7908 23.6166 19.7958 22.1373 21.2751C20.658 22.7545 18.6529 23.5876 16.5609 23.5923ZM20.8873 17.6765C20.3516 17.4112 19.8099 17.158 19.2627 16.9172C19.0508 16.8289 18.9095 16.7936 18.7329 17.0408C18.4988 17.3573 18.2514 17.6637 17.9912 17.9591C17.85 18.1357 17.7087 18.1357 17.4615 18.012C17.2319 17.9061 16.4726 17.6589 15.572 16.8466C15.0527 16.3667 14.6065 15.8134 14.2475 15.2043C14.1063 14.9571 14.2299 14.8511 14.3535 14.7098L14.7067 14.3037C14.8126 14.1624 14.8656 14.0565 14.9362 13.8975C15.0245 13.7386 14.9716 13.615 14.9362 13.4914L14.1946 11.7255C14.0003 11.2664 13.8061 11.3193 13.6648 11.3193C13.5118 11.3156 13.3587 11.3156 13.2057 11.3193C13.0861 11.3209 12.9681 11.3468 12.8588 11.3954C12.7495 11.4439 12.6513 11.5142 12.57 11.6019C12.3404 11.8491 11.74 12.4142 11.74 13.5797C11.74 14.7628 12.5876 15.8753 12.7112 16.0519C12.8172 16.1932 14.3712 18.5948 16.7728 19.619C17.3202 19.8662 17.7617 20.0075 18.1148 20.1311C18.6799 20.3077 19.192 20.2724 19.5982 20.2194C20.0573 20.1488 21.0109 19.6367 21.2051 19.0892C21.3994 18.5418 21.3994 18.065 21.3464 17.9591C21.2934 17.8708 21.1345 17.8001 20.8873 17.6765Z" fill="white"/>
</g>
</g>
<defs>
<clipPath id="clip0_1_2065">
<rect width="31.786" height="31.786" fill="white" transform="translate(0.368164 0.0693359)"/>
</clipPath>
<clipPath id="clip1_1_2065">
<rect width="31.786" height="31.786" fill="white" transform="translate(0.367676 0.0703125)"/>
</clipPath>
</defs>
</svg>
