<svg width="21" height="21" viewBox="0 0 21 21" fill="none" xmlns="http://www.w3.org/2000/svg">
<g clip-path="url(#clip0_1_1211)">
<g clip-path="url(#clip1_1_1211)">
<path d="M20.5 10.6592C20.5 13.3113 19.4464 15.8549 17.5711 17.7302C15.6957 19.6056 13.1522 20.6592 10.5 20.6592C7.84784 20.6592 5.3043 19.6056 3.42893 17.7302C1.55357 15.8549 0.5 13.3113 0.5 10.6592C0.5 8.00701 1.55357 5.46348 3.42893 3.58811C5.3043 1.71275 7.84784 0.65918 10.5 0.65918C13.1522 0.65918 15.6957 1.71275 17.5711 3.58811C19.4464 5.46348 20.5 8.00701 20.5 10.6592Z" fill="#F61C0D"/>
<path d="M14.1201 6.28906H6.88006C6.20018 6.28906 5.548 6.55845 5.06632 7.03826C4.58464 7.51807 4.3127 8.16919 4.31006 8.84906V12.4691C4.31269 13.1472 4.58325 13.7968 5.06277 14.2763C5.5423 14.7559 6.19192 15.0264 6.87006 15.0291H14.1101C14.7882 15.0264 15.4378 14.7559 15.9173 14.2763C16.3969 13.7968 16.6674 13.1472 16.6701 12.4691V8.84906C16.6674 8.17092 16.3969 7.5213 15.9173 7.04178C15.4378 6.56226 14.7882 6.2917 14.1101 6.28906H14.1201ZM12.3801 10.8291L8.99006 12.4591C8.96969 12.4669 8.94776 12.4699 8.92603 12.4678C8.90429 12.4657 8.88336 12.4585 8.8649 12.4468C8.84644 12.4352 8.83096 12.4193 8.8197 12.4006C8.80844 12.3819 8.80171 12.3608 8.80006 12.3391V8.99906C8.80006 8.89906 8.90006 8.82906 9.00006 8.87906L12.3801 10.5891C12.4801 10.6391 12.4801 10.7891 12.3801 10.8391V10.8291Z" fill="white"/>
</g>
</g>
<defs>
<clipPath id="clip0_1_1211">
<rect width="20" height="20" fill="white" transform="translate(0.5 0.65918)"/>
</clipPath>
<clipPath id="clip1_1_1211">
<rect width="20" height="20" fill="white" transform="translate(0.5 0.65918)"/>
</clipPath>
</defs>
</svg>
